<svg width="94" height="49" viewBox="0 0 94 49" fill="none" xmlns="http://www.w3.org/2000/svg">
<path d="M2.24153 0.93386C1.41731 0.590477 0.590479 1.41732 0.933861 2.24153L8.98046 21.5557C9.33493 22.4065 10.554 22.3654 10.8504 21.4927L13.3901 14.0154C13.49 13.7211 13.7211 13.49 14.0154 13.3901L21.4927 10.8504C22.3654 10.554 22.4065 9.33493 21.5556 8.98046L2.24153 0.93386Z" fill="#4F5BE0" stroke="#DADCF7" stroke-linecap="round" stroke-linejoin="round"/>
<rect x="21" y="20" width="73" height="29" rx="4" fill="#4F5BE0"/>
<path d="M34.222 40.224C32.7847 40.224 31.6227 39.7527 30.736 38.81C29.84 37.8673 29.392 36.6027 29.392 35.016C29.392 33.42 29.8353 32.1507 30.722 31.208C31.5993 30.2747 32.766 29.808 34.222 29.808C35.3887 29.808 36.3827 30.1207 37.204 30.746C38.0253 31.3713 38.5387 32.2767 38.744 33.462H36.826C36.658 32.8087 36.3453 32.314 35.888 31.978C35.44 31.6327 34.8847 31.46 34.222 31.46C33.3353 31.46 32.6353 31.7773 32.122 32.412C31.618 33.0373 31.366 33.9053 31.366 35.016C31.366 36.136 31.618 37.0087 32.122 37.634C32.626 38.2593 33.326 38.572 34.222 38.572C34.9127 38.572 35.5053 38.3667 36 37.956C36.4947 37.5453 36.7933 36.976 36.896 36.248H38.786C38.6647 37.5173 38.17 38.4973 37.302 39.188C36.4433 39.8787 35.4167 40.224 34.222 40.224ZM43.7225 32.664C43.8812 32.664 44.0259 32.6733 44.1565 32.692V34.316H43.7085C43.0365 34.316 42.5185 34.4887 42.1545 34.834C41.7999 35.17 41.6225 35.6693 41.6225 36.332V40H39.8585V32.776H41.5665V34.064C41.9679 33.1307 42.6865 32.664 43.7225 32.664ZM46.8585 31.838H45.1225V30.186H46.8585V31.838ZM46.8725 40H45.1085V32.776H46.8725V40ZM51.1361 40.196C49.0267 40.196 47.9254 39.3653 47.8321 37.704H49.5541C49.6007 38.152 49.7454 38.4693 49.9881 38.656C50.2401 38.8427 50.6321 38.936 51.1641 38.936C52.1161 38.936 52.5921 38.6467 52.5921 38.068C52.5921 37.8067 52.4894 37.606 52.2841 37.466C52.0787 37.326 51.7101 37.2093 51.1781 37.116L50.3521 36.976C48.7747 36.7147 47.9861 35.9867 47.9861 34.792C47.9861 34.1107 48.2474 33.5787 48.7701 33.196C49.2927 32.804 50.0301 32.608 50.9821 32.608C53.0447 32.608 54.1087 33.4247 54.1741 35.058H52.5081C52.4894 34.6287 52.3541 34.3253 52.1021 34.148C51.8501 33.9613 51.4767 33.868 50.9821 33.868C50.1421 33.868 49.7221 34.148 49.7221 34.708C49.7221 34.9507 49.8154 35.142 50.0021 35.282C50.1887 35.4127 50.4967 35.5153 50.9261 35.59L51.8361 35.73C52.7134 35.8887 53.3481 36.1407 53.7401 36.486C54.1414 36.8313 54.3421 37.312 54.3421 37.928C54.3421 38.656 54.0621 39.216 53.5021 39.608C52.9421 40 52.1534 40.196 51.1361 40.196ZM58.937 32.776V34.12H57.509V38.026C57.509 38.2593 57.5697 38.4227 57.691 38.516C57.8217 38.6093 58.0364 38.656 58.335 38.656H58.937V40C58.5544 40.0373 58.2464 40.056 58.013 40.056C57.229 40.056 56.655 39.9113 56.291 39.622C55.9364 39.3233 55.759 38.852 55.759 38.208V34.12H54.639V32.776H55.759V30.676H57.509V32.776H58.937ZM63.9319 32.608C64.7159 32.608 65.3319 32.8367 65.7799 33.294C66.2372 33.742 66.4659 34.3813 66.4659 35.212V40H64.7019V35.506C64.7019 34.5913 64.2492 34.134 63.3439 34.134C62.8959 34.134 62.5132 34.2973 62.1959 34.624C61.8879 34.9413 61.7339 35.3847 61.7339 35.954V40H59.9699V30.032H61.7339V33.742C62.2845 32.986 63.0172 32.608 63.9319 32.608ZM69.6495 31.838H67.9135V30.186H69.6495V31.838ZM69.6635 40H67.8995V32.776H69.6635V40ZM77.5811 40H75.8171C75.7331 39.8507 75.6678 39.5567 75.6211 39.118C75.1358 39.818 74.3611 40.168 73.2971 40.168C72.5038 40.168 71.8691 39.9767 71.3931 39.594C70.9264 39.2113 70.6931 38.6793 70.6931 37.998C70.6931 36.682 71.6171 35.9307 73.4651 35.744L74.5571 35.646C74.9211 35.5993 75.1824 35.5153 75.3411 35.394C75.4998 35.2633 75.5791 35.072 75.5791 34.82C75.5791 34.512 75.4764 34.288 75.2711 34.148C75.0751 33.9987 74.7391 33.924 74.2631 33.924C73.7498 33.924 73.3811 34.0127 73.1571 34.19C72.9331 34.358 72.8024 34.652 72.7651 35.072H71.0291C71.1318 33.4293 72.2144 32.608 74.2771 32.608C76.2838 32.608 77.2871 33.3313 77.2871 34.778V38.628C77.2871 39.2627 77.3851 39.72 77.5811 40ZM73.7171 38.908C74.2678 38.908 74.7158 38.7587 75.0611 38.46C75.4064 38.152 75.5791 37.7133 75.5791 37.144V36.486C75.4111 36.6353 75.1358 36.7333 74.7531 36.78L73.8011 36.892C73.3344 36.948 72.9984 37.06 72.7931 37.228C72.5971 37.3867 72.4991 37.62 72.4991 37.928C72.4991 38.236 72.6018 38.4787 72.8071 38.656C73.0218 38.824 73.3251 38.908 73.7171 38.908ZM82.594 32.608C83.378 32.608 83.994 32.8367 84.442 33.294C84.8993 33.742 85.128 34.3813 85.128 35.212V40H83.364V35.506C83.364 34.5913 82.9113 34.134 82.006 34.134C81.558 34.134 81.1753 34.2973 80.858 34.624C80.55 34.9413 80.396 35.3847 80.396 35.954V40H78.632V32.776H80.34V33.812C80.8906 33.0093 81.642 32.608 82.594 32.608Z" fill="#F7F7FC"/>
</svg>
