<svg width="24" height="24" viewBox="0 0 24 24" fill="none" xmlns="http://www.w3.org/2000/svg">
<g id="behance logo">
<g id="Group">
<path id="Vector" d="M10.1571 10.8179C10.5725 10.1713 10.8097 9.39995 10.796 8.57291C10.7593 6.35976 8.91744 4.60103 6.70393 4.60103H0.524139C0.23469 4.60103 0 4.83572 0 5.12517V18.7153C0 19.0047 0.23469 19.2394 0.524139 19.2394H7.42721C9.98932 19.2394 12.1117 17.1859 12.1222 14.6238C12.1286 13.0535 11.3499 11.6614 10.1571 10.8179ZM2.71111 7.31214H6.7567C7.48935 7.31214 8.08547 7.90821 8.08547 8.64091C8.08547 9.37357 7.4894 9.96969 6.7567 9.96969H2.71111V7.31214ZM7.48741 16.5283H2.71111V12.6808H6.7567H7.48736C8.5481 12.6808 9.41111 13.5438 9.41111 14.6045C9.41111 15.6653 8.54815 16.5283 7.48741 16.5283Z" fill="#0067FF"/>
<path id="Vector_2" d="M24.0001 13.66C24.0001 10.4956 21.5059 7.92114 18.4402 7.92114C15.3745 7.92114 12.8804 10.4956 12.8804 13.66C12.8804 16.8244 15.3745 19.399 18.4402 19.399C20.3005 19.399 22.029 18.4453 23.0641 16.8479C23.1931 16.6488 23.3103 16.4407 23.4144 16.2262C23.4898 16.0705 23.3753 15.8893 23.2022 15.8889L20.4692 15.8821C20.4087 15.882 20.3514 15.9067 20.3081 15.9488C19.792 16.4506 19.1593 16.6878 18.4402 16.6878C17.082 16.6878 15.9434 15.6719 15.66 14.3177H23.456C23.7565 14.3177 24.0001 14.0741 24.0001 13.7736V13.66ZM18.4402 10.6322C19.435 10.6322 20.3118 11.1774 20.8215 12.001H16.059C16.5687 11.1774 17.4455 10.6322 18.4402 10.6322Z" fill="#0067FF"/>
<path id="Vector_3" d="M20.7503 7.24748H15.819C15.5889 7.24748 15.4023 7.06096 15.4023 6.83087V5.59376C15.4023 5.36368 15.5889 5.17715 15.819 5.17715H20.7503C20.9804 5.17715 21.1669 5.36368 21.1669 5.59376V6.83087C21.1669 7.06101 20.9804 7.24748 20.7503 7.24748Z" fill="#0067FF"/>
</g>
</g>
</svg>
