<svg width="365" height="107" viewBox="0 0 365 107" fill="none" xmlns="http://www.w3.org/2000/svg">
<g id="Figma Color UI">
<rect id="Rectangle 80" width="365" height="107" rx="8" fill="white"/>
<text id="Fill" fill="black" xml:space="preserve" style="white-space: pre" font-family="Inter" font-size="20" letter-spacing="0em"><tspan x="29" y="39.2727">Fill</tspan></text>
<text id="Fill-color" fill="#46454C" xml:space="preserve" style="white-space: pre" font-family="Inter" font-size="16" letter-spacing="0em"><tspan x="59" y="79.3182">000000</tspan></text>
<g id="apps_FILL0_wght300_GRAD0_opsz24 3">
<path id="Vector" d="M281 39.6153C280.556 39.6153 280.176 39.4572 279.859 39.1408C279.543 38.8245 279.385 38.4442 279.385 38C279.385 37.5558 279.543 37.1755 279.859 36.8591C280.176 36.5428 280.556 36.3846 281 36.3846C281.444 36.3846 281.825 36.5428 282.141 36.8591C282.457 37.1755 282.615 37.5558 282.615 38C282.615 38.4442 282.457 38.8245 282.141 39.1408C281.825 39.4572 281.444 39.6153 281 39.6153ZM287 39.6153C286.556 39.6153 286.176 39.4572 285.859 39.1408C285.543 38.8245 285.385 38.4442 285.385 38C285.385 37.5558 285.543 37.1755 285.859 36.8591C286.176 36.5428 286.556 36.3846 287 36.3846C287.444 36.3846 287.825 36.5428 288.141 36.8591C288.457 37.1755 288.615 37.5558 288.615 38C288.615 38.4442 288.457 38.8245 288.141 39.1408C287.825 39.4572 287.444 39.6153 287 39.6153ZM293 39.6153C292.556 39.6153 292.176 39.4572 291.859 39.1408C291.543 38.8245 291.385 38.4442 291.385 38C291.385 37.5558 291.543 37.1755 291.859 36.8591C292.176 36.5428 292.556 36.3846 293 36.3846C293.444 36.3846 293.825 36.5428 294.141 36.8591C294.457 37.1755 294.615 37.5558 294.615 38C294.615 38.4442 294.457 38.8245 294.141 39.1408C293.825 39.4572 293.444 39.6153 293 39.6153ZM281 33.6153C280.556 33.6153 280.176 33.4572 279.859 33.1408C279.543 32.8245 279.385 32.4442 279.385 32C279.385 31.5558 279.543 31.1755 279.859 30.8591C280.176 30.5428 280.556 30.3846 281 30.3846C281.444 30.3846 281.825 30.5428 282.141 30.8591C282.457 31.1755 282.615 31.5558 282.615 32C282.615 32.4442 282.457 32.8245 282.141 33.1408C281.825 33.4572 281.444 33.6153 281 33.6153ZM287 33.6153C286.556 33.6153 286.176 33.4572 285.859 33.1408C285.543 32.8245 285.385 32.4442 285.385 32C285.385 31.5558 285.543 31.1755 285.859 30.8591C286.176 30.5428 286.556 30.3846 287 30.3846C287.444 30.3846 287.825 30.5428 288.141 30.8591C288.457 31.1755 288.615 31.5558 288.615 32C288.615 32.4442 288.457 32.8245 288.141 33.1408C287.825 33.4572 287.444 33.6153 287 33.6153ZM293 33.6153C292.556 33.6153 292.176 33.4572 291.859 33.1408C291.543 32.8245 291.385 32.4442 291.385 32C291.385 31.5558 291.543 31.1755 291.859 30.8591C292.176 30.5428 292.556 30.3846 293 30.3846C293.444 30.3846 293.825 30.5428 294.141 30.8591C294.457 31.1755 294.615 31.5558 294.615 32C294.615 32.4442 294.457 32.8245 294.141 33.1408C293.825 33.4572 293.444 33.6153 293 33.6153ZM281 27.6153C280.556 27.6153 280.176 27.4572 279.859 27.1408C279.543 26.8245 279.385 26.4442 279.385 26C279.385 25.5558 279.543 25.1755 279.859 24.8591C280.176 24.5428 280.556 24.3846 281 24.3846C281.444 24.3846 281.825 24.5428 282.141 24.8591C282.457 25.1755 282.615 25.5558 282.615 26C282.615 26.4442 282.457 26.8245 282.141 27.1408C281.825 27.4572 281.444 27.6153 281 27.6153ZM287 27.6153C286.556 27.6153 286.176 27.4572 285.859 27.1408C285.543 26.8245 285.385 26.4442 285.385 26C285.385 25.5558 285.543 25.1755 285.859 24.8591C286.176 24.5428 286.556 24.3846 287 24.3846C287.444 24.3846 287.825 24.5428 288.141 24.8591C288.457 25.1755 288.615 25.5558 288.615 26C288.615 26.4442 288.457 26.8245 288.141 27.1408C287.825 27.4572 287.444 27.6153 287 27.6153ZM293 27.6153C292.556 27.6153 292.176 27.4572 291.859 27.1408C291.543 26.8245 291.385 26.4442 291.385 26C291.385 25.5558 291.543 25.1755 291.859 24.8591C292.176 24.5428 292.556 24.3846 293 24.3846C293.444 24.3846 293.825 24.5428 294.141 24.8591C294.457 25.1755 294.615 25.5558 294.615 26C294.615 26.4442 294.457 26.8245 294.141 27.1408C293.825 27.4572 293.444 27.6153 293 27.6153Z" fill="#0C0C0E"/>
</g>
<g id="plus">
<path id="Vector_2" d="M322 25V39" stroke="#0C0C0E" stroke-linecap="round" stroke-linejoin="round"/>
<path id="Vector_3" d="M315 32H329" stroke="#0C0C0E" stroke-linecap="round" stroke-linejoin="round"/>
</g>
<path id="Vector_4" d="M315 73H329" stroke="#0C0C0E" stroke-linecap="round" stroke-linejoin="round"/>
<g id="Frame 32">
<path id="Vector_5" d="M281 73C281 73 283.182 70 287 70C290.818 70 293 73 293 73C293 73 290.818 76 287 76C283.182 76 281 73 281 73Z" stroke="black" stroke-width="0.75" stroke-linecap="round" stroke-linejoin="round"/>
<path id="Vector_6" d="M287 74.875C288.036 74.875 288.875 74.0355 288.875 73C288.875 71.9645 288.036 71.125 287 71.125C285.964 71.125 285.125 71.9645 285.125 73C285.125 74.0355 285.964 74.875 287 74.875Z" fill="#040514"/>
</g>
</g>
</svg>
